<svg width="156" height="156" viewBox="0 0 156 156" fill="none" xmlns="http://www.w3.org/2000/svg">
<path d="M64.4004 30.6C60.2004 16.6 60.0005 2.8 68.0005 1C71.2005 0.3 74.3005 4.39999 77.3005 3.89999C80.5005 3.39999 82.1004 0 85.9004 0C93.4004 0 96.0005 14.1 92.5005 29.4C86.8005 50.7 81.1005 66.8 79.5005 66.8C77.8005 66.8 70.0004 49.2 64.4004 30.6Z" fill="#ECEBEB"/>
<path d="M91.0996 125.2C95.3996 139.2 95.4996 153 87.4996 154.8C84.2996 155.5 81.1996 151.4 78.1996 151.9C74.9996 152.4 73.3996 155.8 69.5996 155.8C62.0996 155.8 59.4996 141.7 62.9996 126.4C68.6996 105.1 74.3996 89 75.9996 89C77.5996 89 85.4996 106.7 91.0996 125.2Z" fill="#ECEBEB"/>
<path d="M101.7 35C108.6 22.1 118.2 12.2 125.1 16.6C127.9 18.4 127.2 23.4 129.6 25.3C132.2 27.2 135.7 26 138.4 28.6C143.7 33.9 135.6 45.7 122.3 54C103.2 65 87.7999 72.4 86.6999 71.2C85.5999 70.1 92.5999 52.1 101.7 35Z" fill="#ECEBEB"/>
<path d="M53.8002 120.8C46.9002 133.7 37.3002 143.6 30.4002 139.2C27.6002 137.4 28.4002 132.4 25.9002 130.6C23.3002 128.7 19.8002 129.9 17.1002 127.3C11.8002 122 19.9002 110.1 33.2002 101.9C52.3002 90.9 67.7002 83.5 68.8002 84.7C69.8002 85.7 62.9002 103.7 53.8002 120.8Z" fill="#ECEBEB"/>
<path d="M155.6 86C155.6 93.5 141.5 96.2 126.2 92.6C104.9 86.9 88.7998 81.2 88.7998 79.6C88.7998 78 106.5 70.2 125 64.6C139 60.4 152.8 60.2 154.6 68.2C155.3 71.4 151.2 74.5 151.7 77.5C152.2 80.7 155.6 82.3 155.6 86Z" fill="#ECEBEB"/>
<path d="M30.5 91.3C16.5 95.5 2.69996 95.7 0.899963 87.7C0.199963 84.5 4.29999 81.4 3.79999 78.4C3.29999 75.2 0 73.6 0 69.8C0 62.3 14.1 59.6 29.4 63.2C50.7 68.9 66.8 74.6 66.8 76.2C66.6 77.8 49 85.6 30.5 91.3Z" fill="#ECEBEB"/>
<path d="M139 125.4C137.2 128.2 132.1 127.4 130.4 129.9C128.5 132.5 129.7 136 127.1 138.7C121.8 144 109.9 135.9 101.7 122.6C90.7 103.5 83.4 88.1 84.5 87C85.6 85.9 103.7 92.8 120.7 101.9C133.5 108.8 143.4 118.4 139 125.4Z" fill="#ECEBEB"/>
<path d="M16.4997 30.5C18.2997 27.7 23.2997 28.4 25.0997 26C26.9997 23.4 25.7997 19.9 28.3997 17.2C33.6997 11.9 45.5997 20 53.7997 33.3C64.7997 52.4 72.1997 67.8 70.9997 68.9C69.8997 70 51.7997 63 34.7997 53.9C21.9997 47.1 12.0997 37.4 16.4997 30.5Z" fill="#ECEBEB"/>
<path d="M77.6998 106.3C93.3847 106.3 106.1 93.5849 106.1 77.9C106.1 62.2151 93.3847 49.5 77.6998 49.5C62.0149 49.5 49.2998 62.2151 49.2998 77.9C49.2998 93.5849 62.0149 106.3 77.6998 106.3Z" fill="#ECEBEB"/>
<path d="M77.7002 96.9C88.1936 96.9 96.7002 88.3934 96.7002 77.9C96.7002 67.4066 88.1936 58.9 77.7002 58.9C67.2068 58.9 58.7002 67.4066 58.7002 77.9C58.7002 88.3934 67.2068 96.9 77.7002 96.9Z" fill="#161310"/>
</svg>
